<?xml version="1.0" encoding="iso-8859-1"?>
<!-- Uploaded to: SVG Repo, www.svgrepo.com, Generator: SVG Repo Mixer Tools -->
<svg version="1.1" id="Layer_1" xmlns="http://www.w3.org/2000/svg" xmlns:xlink="http://www.w3.org/1999/xlink" 
	 viewBox="0 0 511.999 511.999" xml:space="preserve">
<g>
	<path style="fill:#F72F48;" d="M405.212,416.004H106.546v49.692c0,19.6,16.037,35.637,35.637,35.637h227.392
		c19.598,0,35.637-16.042,35.637-35.637V416.004z"/>
	<path style="fill:#FF9600;" d="M106.546,416.004h298.666V212.84c-19.141-2.135-34.013-18.077-34.015-37.43
		c0,20.807-17.191,37.674-38.398,37.674c-21.208,0-38.4-16.867-38.4-37.674c0,20.807-17.191,37.674-38.402,37.674
		c-21.208,0-38.398-16.867-38.398-37.674c0,20.807-17.194,37.674-38.4,37.674c-21.208,0-38.402-16.867-38.402-37.674
		c0,19.431-14.994,35.429-34.252,37.456V416.004L106.546,416.004z M213.212,271.877v63.998h-64v-63.998H213.212z"/>
	<rect x="149.216" y="271.871" style="fill:#F72F48;" width="64" height="63.998"/>
	<path style="fill:#00E588;" d="M106.546,212.867c19.259-2.027,34.252-18.024,34.252-37.456v-18.836l23.042-81.911h-57.296
		L64,156.574v18.836c0,20.807,17.189,37.674,38.398,37.674C103.8,213.084,105.184,213.014,106.546,212.867z"/>
	<path style="fill:#1E9ED1;" d="M140.798,175.41c0,20.807,17.194,37.674,38.402,37.674c21.206,0,38.4-16.867,38.4-37.674v-18.836
		l7.681-81.91H163.84l-23.042,81.91V175.41z"/>
	<path style="fill:#00E588;" d="M217.6,156.574v18.836c0,20.807,17.189,37.674,38.398,37.674c21.211,0,38.402-16.867,38.402-37.674
		v-18.836l-7.681-81.91h-61.438L217.6,156.574z"/>
	<path style="fill:#1E9ED1;" d="M286.718,74.663l7.681,81.91v18.836c0,20.807,17.191,37.674,38.4,37.674
		c21.206,0,38.398-16.867,38.398-37.674v-18.836l-23.038-81.91C348.159,74.663,286.718,74.663,286.718,74.663z"/>
	<path style="fill:#00E588;" d="M348.16,74.663l23.038,81.91l0.001,18.836c0,19.354,14.87,35.295,34.013,37.43
		c1.44,0.16,2.905,0.244,4.385,0.244c21.211,0,38.402-16.867,38.402-37.674v-18.836l-42.787-81.91H348.16V74.663z"/>
	<path style="fill:#F72F48;" d="M348.16,74.663h57.052V46.304c0-19.6-16.037-35.637-35.637-35.637H142.183
		c-19.6,0-35.637,16.037-35.637,35.637l-0.002,28.359h57.296h61.442h61.438H348.16z"/>
</g>
<g>
	<path style="fill:#000003;" d="M255.881,442.666c-8.813,0-16,7.187-16,16.003c0,8.811,7.187,15.998,16,15.998
		c8.811,0,15.998-7.187,15.998-15.998C271.879,449.853,264.692,442.666,255.881,442.666z"/>
	<path style="fill:#000003;" d="M458.593,155.366c-0.013-0.105-0.033-0.206-0.048-0.31c-0.042-0.299-0.094-0.595-0.16-0.885
		c-0.027-0.112-0.059-0.224-0.087-0.335c-0.075-0.287-0.162-0.569-0.262-0.846c-0.035-0.102-0.07-0.204-0.111-0.305
		c-0.123-0.309-0.258-0.61-0.406-0.906c-0.025-0.047-0.039-0.097-0.065-0.144l-0.063-0.118c-0.006-0.014-0.013-0.027-0.021-0.039
		l-41.491-79.431V46.304C415.878,20.772,395.104,0,369.574,0H142.182C116.65,0,95.878,20.772,95.878,46.303L95.876,72.06
		l-41.252,79.424c-0.004,0.007-0.009,0.015-0.013,0.021l-0.079,0.154c-0.027,0.052-0.044,0.108-0.071,0.159
		c-0.144,0.287-0.275,0.579-0.391,0.879c-0.039,0.102-0.077,0.206-0.112,0.309c-0.098,0.275-0.183,0.555-0.26,0.838
		c-0.029,0.112-0.059,0.223-0.085,0.335c-0.067,0.29-0.116,0.585-0.16,0.881c-0.015,0.105-0.035,0.206-0.048,0.31
		c-0.044,0.396-0.07,0.796-0.07,1.203v18.836c0,24.476,18.562,44.748,42.546,47.901v242.385c0,25.533,20.773,46.304,46.304,46.304
		h227.392c25.532,0,46.304-20.772,46.304-46.304V223.341c24.1-3.051,42.787-23.374,42.787-47.932v-18.836
		C458.666,156.165,458.637,155.763,458.593,155.366z M142.183,21.333h227.392c13.768,0,24.971,11.202,24.971,24.971v17.693H348.16
		h-61.442h-61.442H163.84H117.21l0.002-17.693C117.213,32.535,128.415,21.333,142.183,21.333z M360.533,175.41
		c0,14.892-12.442,27.007-27.733,27.007c-15.294,0-27.733-12.115-27.733-27.007v-8.17h2.933c5.889,0,10.667-4.777,10.667-10.667
		c0-5.891-4.778-10.667-10.667-10.667h-3.888l-5.679-60.577h41.646l20.454,72.716V175.41z M228.266,157.073l6.725-71.743h42.015
		l5.679,60.577h-27.806c-5.891,0-10.667,4.775-10.667,10.667c0,5.89,4.775,10.667,10.667,10.667h28.853v8.17
		c0,14.892-12.442,27.007-27.735,27.007c-15.29,0-27.731-12.115-27.731-27.007V157.073z M113.023,85.33h36.735l-17.04,60.577H81.56
		L113.023,85.33z M151.464,167.24h31.573c5.891,0,10.667-4.777,10.667-10.667c0-5.891-4.775-10.667-10.667-10.667H154.88
		l17.04-60.577h41.646l-6.583,70.248c-0.031,0.331-0.048,0.663-0.048,0.996v18.836c0,14.892-12.442,27.007-27.733,27.007
		c-15.294,0-27.735-12.115-27.735-27.007v-8.171H151.464z M74.667,175.41v-8.17h55.464v8.17c0,14.892-12.439,27.007-27.733,27.007
		C87.107,202.418,74.667,190.301,74.667,175.41z M369.575,490.667H142.183c-13.769,0-24.971-11.202-24.971-24.971V221.493
		c9.402-2.94,17.576-8.605,23.585-16.044c8.998,11.139,22.863,18.301,38.402,18.301s29.404-7.162,38.4-18.3
		c8.996,11.138,22.861,18.3,38.398,18.3c15.539,0,29.404-7.162,38.402-18.301c8.996,11.139,22.861,18.301,38.4,18.301
		c15.539,0,29.404-7.162,38.4-18.3c5.956,7.375,14.046,13.002,23.346,15.964v183.924H180.427c-5.889,0-10.667,4.777-10.667,10.667
		c0,5.891,4.778,10.667,10.667,10.667h214.118v39.025C394.545,479.465,383.343,490.667,369.575,490.667z M409.597,202.418
		c-15.29,0-27.731-12.115-27.731-27.007v-18.836c0-0.976-0.133-1.948-0.398-2.889l-19.227-68.355h36.509l31.644,60.577h-13.34
		c-5.891,0-10.667,4.775-10.667,10.667c0,5.89,4.775,10.667,10.667,10.667h20.278v8.17
		C437.332,190.301,424.891,202.418,409.597,202.418z"/>
	<path style="fill:#000003;" d="M149.212,346.541h64c5.889,0,10.667-4.777,10.667-10.667v-63.998c0-5.89-4.778-10.667-10.667-10.667
		h-64c-5.889,0-10.667,4.777-10.667,10.667v63.998C138.546,341.765,143.323,346.541,149.212,346.541z M159.879,282.543h42.667
		v42.664h-42.667V282.543z"/>
	<path style="fill:#000003;" d="M255.881,282.543h106.662c5.889,0,10.667-4.777,10.667-10.667c0-5.89-4.778-10.667-10.667-10.667
		H255.881c-5.889,0-10.667,4.777-10.667,10.667C245.214,277.767,249.992,282.543,255.881,282.543z"/>
	<path style="fill:#000003;" d="M362.543,303.876h-6.4c-5.89,0-10.667,4.777-10.667,10.667c0,5.89,4.777,10.667,10.667,10.667h6.4
		c5.889,0,10.667-4.777,10.667-10.667C373.21,308.651,368.433,303.876,362.543,303.876z"/>
	<path style="fill:#000003;" d="M255.881,325.209h61.862c5.889,0,10.667-4.777,10.667-10.667c0-5.89-4.778-10.667-10.667-10.667
		h-61.862c-5.889,0-10.667,4.777-10.667,10.667C245.214,320.432,249.992,325.209,255.881,325.209z"/>
	<path style="fill:#000003;" d="M255.881,367.878h6.4c5.889,0,10.667-4.777,10.667-10.667c0-5.891-4.778-10.667-10.667-10.667h-6.4
		c-5.889,0-10.667,4.775-10.667,10.667C245.214,363.101,249.992,367.878,255.881,367.878z"/>
	<path style="fill:#000003;" d="M362.543,346.544h-61.864c-5.889,0-10.667,4.775-10.667,10.667c0,5.89,4.778,10.667,10.667,10.667
		h61.864c5.889,0,10.667-4.777,10.667-10.667C373.21,351.32,368.433,346.544,362.543,346.544z"/>
	<path style="fill:#000003;" d="M147.243,405.338h-6.402c-5.889,0-10.667,4.777-10.667,10.667c0,5.891,4.778,10.667,10.667,10.667
		h6.402c5.891,0,10.667-4.775,10.667-10.667C157.91,410.113,153.136,405.338,147.243,405.338z"/>
</g>
</svg>